Coordinates
version=1
nRows=14
nColumns=32
inDegrees=yes

Units are S.I. units (second, meters, Newtons, ...)
If the header above contains a line with 'inDegrees', this indicates whether rotational values are in degrees (yes) or radians (no).

endheader
time	pelvis_tilt	pelvis_list	pelvis_rotation	pelvis_tx	pelvis_ty	pelvis_tz	hip_flexion_r	hip_adduction_r	hip_rotation_r	knee_angle_r	knee_adduction_r	med_cond_adduction_r	lat_cond_adduction_r	patella_r_constrained_knee_angle	hip_flexion_l	hip_adduction_l	hip_rotation_l	knee_angle_l	knee_adduction_l	med_cond_adduction_l	lat_cond_adduction_l	patella_l_constrained_knee_angle	lumbar_extension	lumbar_bending	lumbar_rotation	ankle_angle_r	subtalar_angle_r	mtp_angle_r	ankle_angle_l	subtalar_angle_l	mtp_angle_l
      0.02500000	    -10.53594542	     -4.12619011	    -10.34517374	     -0.76819244	      0.84908255	      0.18450082	     -2.21420701	      4.10120493	      7.84058853	    -18.88910436	      2.72113710	     -0.00000000	     -0.00000000	     -0.32967706	     34.43623746	     -7.62294591	     -4.84978967	     -3.45299031	     -0.40960778	     -0.00000000	     -0.00000000	     -0.06026605	     -8.76941793	      7.11044765	      8.34298528	      1.24858105	      8.51039622	      0.00000000	      0.64884708	      4.39695991	      0.00000000
      0.03000000	    -10.34523911	     -3.89838775	    -10.24499071	     -0.76019288	      0.84859780	      0.18411728	     -2.43361404	      3.72561126	      7.93693745	    -19.62292491	      2.84310311	     -0.00000000	     -0.00000000	     -0.34248465	     34.36671070	     -7.17608606	     -4.79571185	     -4.38016961	     -0.45068317	     -0.00000000	     -0.00000000	     -0.07644838	     -8.74463426	      6.65007294	      8.61136573	      0.76356561	      8.63019710	     -0.00000000	      0.17112762	      5.66899865	      0.00000000
      0.03500000	    -10.23049160	     -3.58398041	    -10.06140634	     -0.75228689	      0.84805085	      0.18364975	     -2.44999209	      3.25405488	      7.87338683	    -20.48239801	      2.98964350	     -0.00000000	     -0.00000000	     -0.35748528	     34.31078809	     -6.60596547	     -4.36924978	     -5.10716435	     -0.42491652	     -0.00000000	     -0.00000000	     -0.08913683	     -8.60584056	      6.04572478	      8.33764650	     -0.18497673	      8.38430842	     -0.00000000	     -0.31293637	      6.22442473	     -0.00000000
      0.04000000	    -10.12253755	     -3.22991919	     -9.90827653	     -0.74446288	      0.84762988	      0.18321019	     -2.41204326	      2.75444205	      7.98329156	    -21.35542948	      3.18884351	      0.00000000	     -0.00000000	     -0.37272256	     34.22807183	     -6.01753833	     -3.90968999	     -5.73208077	     -0.38397923	     -0.00000000	     -0.00000000	     -0.10004368	     -8.39874747	      5.39526778	      7.99304107	     -1.99364740	      8.01022686	     -0.00000000	     -1.93974253	      5.42980167	     -0.00000000
      0.04500000	    -10.01435281	     -2.88534710	     -9.73146935	     -0.73675179	      0.84724183	      0.18278268	     -2.28143175	      2.25915109	      8.18379834	    -22.37340887	      3.51376004	     -0.00000000	     -0.00000000	     -0.39048965	     34.23323957	     -5.47244851	     -3.60257504	     -6.48699889	     -0.33435552	      0.00000000	      0.00000000	     -0.11321949	     -8.24347712	      4.74975765	      7.87146689	     -3.32677418	      7.15663968	      0.00000000	     -3.03304792	      5.66318235	     -0.00000000
      0.05000000	     -9.94553217	     -2.49599603	     -9.55249501	     -0.72915427	      0.84679395	      0.18236643	     -1.96761774	      1.74617105	      8.24183527	    -23.61847185	      3.74442953	     -0.00000000	     -0.00000000	     -0.41222010	     34.36239880	     -4.90310013	     -3.43845104	     -7.36076086	     -0.34155183	      0.00000000	      0.00000000	     -0.12846951	     -8.06380344	      4.10261444	      8.06510029	     -4.18118539	      7.01902677	      0.00000000	     -3.56465836	      6.98163805	     -0.00000000
      0.05500000	     -9.81566282	     -2.06918240	     -9.32186925	     -0.72157817	      0.84651553	      0.18191131	     -1.72112809	      1.17035084	      8.35900227	    -24.73126759	      4.03192045	     -0.00000000	     -0.00000000	     -0.43164205	     34.43205467	     -4.27470165	     -3.24180772	     -8.22520576	     -0.31502384	     -0.00000000	     -0.00000000	     -0.14355692	     -7.97282644	      3.34705179	      7.46743350	     -6.35279380	      6.68414521	      0.00000000	     -4.83584593	      7.01856284	     -0.00000000
      0.06000000	     -9.78354311	     -1.69969629	     -9.11760079	     -0.71415671	      0.84612290	      0.18156947	     -1.24359157	      0.70950106	      8.50973048	    -26.09359466	      4.33085279	     -0.00000000	     -0.00000000	     -0.45541914	     34.70130127	     -3.81697796	     -3.12379313	     -9.29967246	     -0.20672967	      0.00000000	      0.00000000	     -0.16230990	     -7.76045435	      2.68657703	      7.85501696	     -7.23063490	      6.84872488	      0.00000000	     -5.14997107	      8.55412276	     -0.00000000
      0.06500000	     -9.66110204	     -1.18221308	     -8.83279365	     -0.70679680	      0.84594849	      0.18106642	     -0.78557488	      0.04389989	      8.53292879	    -27.44949429	      4.63405332	     -0.00000000	     -0.00000000	     -0.47908405	     34.77259448	     -3.11021667	     -2.80286672	    -10.14069242	     -0.10521500	      0.00000000	      0.00000000	     -0.17698847	     -7.69569837	      1.85723332	      7.32803307	     -9.47073142	      6.10275045	      0.00000000	     -6.17291731	      8.40943903	     -0.00000000
      0.07000000	     -9.64155058	     -0.63078467	     -8.60115560	     -0.69945507	      0.84569486	      0.18066557	     -0.16482348	     -0.65316534	      8.76575849	    -28.85088845	      5.06058637	      0.00000000	      0.00000000	     -0.50354300	     34.97277644	     -2.45472282	     -2.55695877	    -11.05464193	      0.06288990	      0.00000000	      0.00000000	     -0.19293990	     -7.44453009	      0.96489748	      7.02816174	    -11.92097095	      5.35619489	     -0.00000000	     -7.06073291	      8.25480542	      0.00000000
      0.07500000	     -9.58413749	     -0.11094163	     -8.36012611	     -0.69222441	      0.84552211	      0.18030992	      0.49405949	     -1.29399413	      8.95565386	    -30.35091751	      5.42202292	      0.00000000	      0.00000000	     -0.52972344	     35.18399683	     -1.86702193	     -2.40111708	    -12.11016001	      0.26192046	      0.00000000	      0.00000000	     -0.21136217	     -7.29574511	      0.10008278	      6.87172640	    -13.93329080	      5.18112501	      0.00000000	     -7.35641938	      8.78025330	     -0.00000000
      0.08000000	     -9.50958401	      0.38345241	     -8.09155840	     -0.68506274	      0.84546546	      0.17993937	      1.13386200	     -1.90877424	      9.26358334	    -31.76829398	      5.86452979	      0.00000000	     -0.00000000	     -0.55446133	     35.31269537	     -1.31687701	     -2.00852065	    -13.10577166	      0.61877963	     -0.00000000	     -0.00000000	     -0.22873887	     -7.21678225	     -0.71893339	      6.54999740	    -16.67631093	      4.16889605	     -0.00000000	     -7.95278198	      8.31518955	     -0.00000000
      0.08500000	     -9.39432495	      0.92589632	     -7.81525440	     -0.67790655	      0.84543044	      0.17958069	      1.82220688	     -2.58571101	      9.37983978	    -33.31384774	      6.19683930	     -0.00000000	     -0.00000000	     -0.58143633	     35.42563034	     -0.70261863	     -1.79834233	    -14.19086970	      0.88315629	      0.00000000	      0.00000000	     -0.24767740	     -7.16443663	     -1.60154185	      6.31040212	    -18.66128756	      4.28118229	     -0.00000000	     -7.71008332	      8.86093813	      0.00000000
      0.09000000	     -9.28463396	      1.43543191	     -7.56508634	     -0.67082522	      0.84547716	      0.17928585	      2.54618502	     -3.19979311	      9.58149033	    -34.86349230	      6.51773827	      0.00000000	      0.00000000	     -0.60848273	     35.49430429	     -0.16176429	     -1.53663946	    -15.25016160	      1.22934338	     -0.00000000	     -0.00000000	     -0.26616553	     -7.13404064	     -2.44716255	      6.16704564	    -20.62112997	      4.46563995	      0.00000000	     -7.46192123	      9.31714941	      0.00000000
